<?xml version="1.0" encoding="UTF-8"?>
<!-- Created with Inkscape (http://www.inkscape.org/) -->
<svg width="75.148mm" height="75.148mm" version="1.1" viewBox="0 0 75.148 75.148" xmlns="http://www.w3.org/2000/svg">
	<g transform="translate(-31.675 -65.35)">
		<rect x="33.228" y="66.903" width="72.043" height="72.043" ry="12.306" fill="none" stroke="#000" stroke-width="3.1054"/>
		<path d="m90.701 75.472-2.2239 1.4563v-0.9257l2.2352-1.5466h0.97085v7.3266h-0.98214zm6.2089 6.4234q-0.49672 0-0.80152-0.03387t-0.63218-0.13547q-0.34996-0.1016-0.55316-0.29351-0.2032-0.2032-0.33867-0.56445t-0.13547-0.84668v-3.7028q0-0.508 0.15805-0.89183 0.16934-0.38383 0.42898-0.60961 0.22578-0.19191 0.60961-0.3048 0.38383-0.12418 0.76765-0.15805 0.42898-0.02258 0.77894-0.02258 0.68863 0 1.8514 0.1016v0.76765q-1.1628-0.14676-1.9982-0.14676-0.63218 0-0.95956 0.09031t-0.48543 0.36125q-0.14676 0.25965-0.14676 0.79023v1.1515h1.6595q0.56445 0 0.84668 0.02258t0.59832 0.09031 0.46285 0.22578q0.15805 0.15805 0.27094 0.45156 0.1016 0.28222 0.1016 0.71121v1.0725q0 1.2192-0.76765 1.5805-0.37254 0.16934-0.74507 0.22578-0.37254 0.06773-0.97085 0.06773zm0.02258-0.66605q0.59832 0 0.89183-0.07902 0.3048-0.09031 0.42898-0.32738 0.13547-0.24836 0.13547-0.74507v-1.095q0-0.37254-0.11289-0.55316-0.11289-0.19191-0.41769-0.25965-0.3048-0.06773-0.93699-0.06773h-1.4676v1.9756q0 0.49672 0.13547 0.74507 0.13547 0.23707 0.44027 0.32738 0.3048 0.07902 0.90312 0.07902z" stroke-width="2.919" aria-label="16"/>
		<path d="m68.798 112.36q-2.3424 0-5.588-0.45155v-2.286q3.2738 0.70555 5.7573 0.70555 2.0884 0 3.048-0.45155 0.95955-0.47978 0.95955-1.7498v-2.3706q0-1.1853-0.67733-1.6651-0.67733-0.47978-2.3706-0.47978h-2.1449q-2.6811 0-3.81-1.0724-1.1289-1.0724-1.1289-3.3302v-1.4675q0-1.4958 0.64911-2.4271 0.67733-0.93133 2.2295-1.3829 1.5804-0.45155 4.318-0.45155 1.8344 0 4.7131 0.31044v2.0602q-3.2173-0.47977-4.9106-0.47977-2.6246 0-3.4713 0.508-0.87488 0.53622-0.87488 1.778v2.0884q0 0.95955 0.67733 1.4111 0.70555 0.42333 2.3989 0.42333h2.2013q1.8909 0 2.9351 0.45155 1.0724 0.45155 1.4958 1.3829 0.45155 0.9031 0.45155 2.4553v1.3264q0 1.9473-0.73377 3.0762-0.70555 1.1289-2.2013 1.6086t-3.9229 0.47977z" stroke-width="2.919" aria-label="S"/>
	</g>
</svg>
