<?xml version="1.0" encoding="UTF-8"?>
<svg width="73.511mm" height="73.511mm" version="1.1" viewBox="0 0 73.511 73.511" xmlns="http://www.w3.org/2000/svg">
	<g transform="translate(-131.34)" fill-opacity="0">
		<circle transform="translate(-68.244 -111.74)" cx="236.34" cy="148.5" r="35.256" stroke="#000" stroke-width="3"/>
		<path transform="translate(-68.244 -111.74)" d="m232.89 156.49q-0.22324-0.64492-0.39688-1.6619-0.17363-1.0418-0.17363-2.0588 0-1.5875 0.62012-2.8525 0.64492-1.2898 1.5875-2.4061t2.0588-2.1332q1.1162-1.0418 2.0588-2.0836 0.94257-1.0666 1.5627-2.2076 0.64492-1.1658 0.64492-2.5549 0-1.1906-0.47129-2.1084-0.44648-0.91778-1.2402-1.5379-0.79375-0.62012-1.8356-0.91778-1.0418-0.32246-2.2076-0.32246-4.192 0-7.2678 3.299v-4.3656q3.7951-2.3812 7.8631-2.3812 1.8852 0 3.5471 0.49609 1.6619 0.4961 2.9022 1.4883 1.265 0.96738 1.9844 2.4309 0.71934 1.4635 0.71934 3.3982 0 1.8355-0.64492 3.2742-0.64493 1.4387-1.6371 2.6541-0.96739 1.1906-2.1084 2.2324-1.141 1.0418-2.1332 2.0836-0.96739 1.017-1.6123 2.1332t-0.64492 2.4557q0 1.141 0.27285 2.0836 0.27285 0.91778 0.5457 1.5627zm2.2324 10.319q-1.0914 0-1.9348-0.79375-0.81856-0.79375-0.81856-1.9348 0-1.1658 0.81856-1.9348 0.81855-0.81856 1.9348-0.81856t1.9348 0.81856q0.81855 0.76894 0.81855 1.9348 0 1.141-0.81855 1.9348-0.84336 0.79375-1.9348 0.79375z" fill-opacity="1" stroke-width="2" aria-label="?"/>
	</g>
</svg>
