<?xml version="1.0" encoding="UTF-8"?>
<svg width="185.71mm" height="185.91mm" version="1.1" viewBox="0 0 185.71 185.91" xmlns="http://www.w3.org/2000/svg">

	<defs>
		<linearGradient id="gradient1" gradientTransform="rotate(45)">
			<stop offset="0%" style="stop-color:#c3ab1c" />
			<stop offset="100%" style="stop-color:#ffdb00" />
		</linearGradient>
	</defs>

	<path fill="url('#gradient1')" transform="translate(2.904,23)" d="m-1.404-1.404 19.904-20.096h162.81v162.81l-19.904 20.096h-162.81z" stroke="#000" stroke-width="3"/>
	<g transform="translate(2.904,23)" stroke="#000" stroke-linecap="round" stroke-width="3">
		<path transform="translate(-2.904,-23)" d="m1.5 21.596h162.8l6e-3 162.81" fill="none" stroke="#000" stroke-linecap="round" stroke-width="3"/>
		<path d="m161.4-1.404 19.905-20.096" fill="#fff" fill-rule="evenodd"/>
	</g>
	<g transform="translate(-35.685,-31.958)">
		<animateTransform attributeType="xml" attributeName="transform" type="rotate" values="720 118.589 134.958;0 118.589 134.958" keyTimes="0;1" dur="4s" additive="sum" repeatCount="indefinite" calcMode="spline" keySplines="0.7 0.15 0.3 0.85"/>
		<g transform="rotate(-45,158.31,81.676)">
			<rect x="67.549" y="16.264" width="50" height="50" ry="10" fill="#997100" stroke-width=".15407"/>
			<path d="m91.914 50.704q-2.6247 0-6.4911-0.508v-3.3584q4.7978 0.73378 6.5476 0.73378 3.6689 0 3.6689-1.8909v-1.1853q0-0.90311-0.53622-1.3829-0.508-0.47978-1.8627-0.47978h-2.1449q-6.0396 0-6.0396-4.7978v-1.3547q0-2.3989 2.0038-3.5278t6.35-1.1289q2.2578 0 5.7291 0.36689v3.2738q-4.2616-0.508-5.8702-0.508-2.2296 0-2.9916 0.36689-0.81844 0.39511-0.81844 1.2418v1.2982q0 1.4393 2.4271 1.4393h2.2013q3.1327 0 4.5438 1.1571t1.4111 3.5278v1.2136q0 3.2738-2.3424 4.4309-1.1289 0.59267-2.5118 0.81844-1.3547 0.254-3.2738 0.254z" fill="#fff" style="white-space:pre" aria-label="S"/>
			<path d="m107.6 21.414-1.2488 0.69144v-0.86783l1.4464-0.90311h0.83256v4.5791h-1.0301zm4.2827 3.5701q-0.3175 0-0.51506-0.02117-0.19755-0.02117-0.41628-0.09172-0.23988-0.07761-0.381-0.20461-0.14111-0.127-0.23989-0.36689-0.0988-0.254-0.0988-0.57856v-2.1308q0-0.33867 0.11289-0.59972 0.11994-0.26811 0.30339-0.40922 0.15522-0.11994 0.41627-0.19756 0.26106-0.08467 0.508-0.10583 0.26811-0.01411 0.48684-0.01411 0.30339 0 1.27 0.07056v0.75494q-0.9525-0.11289-1.3617-0.11289-0.33866 0-0.47977 0.03528t-0.1905 0.14111q-0.0423 0.09878-0.0423 0.35983v0.54328h0.75495q0.381 0 0.55033 0.01411 0.16934 0.0071 0.381 0.0635 0.22578 0.05644 0.33161 0.16228 0.11289 0.09878 0.19756 0.30339 0.0776 0.21167 0.0776 0.50094v0.62089q0 0.32456-0.0988 0.5715-0.0988 0.23989-0.254 0.37394-0.14111 0.127-0.37394 0.20461-0.22578 0.07761-0.45156 0.09172-0.19755 0.02117-0.48683 0.02117zm0.0141-0.68439q0.31044 0 0.43039-0.03528 0.127-0.03528 0.16228-0.13406 0.0353-0.10583 0.0353-0.35983v-0.66322q0-0.16933-0.0423-0.23989-0.0423-0.07761-0.17639-0.10583-0.127-0.02822-0.41628-0.02822h-0.635v1.0442q0 0.23989 0.0353 0.34572 0.0423 0.10583 0.16933 0.14111 0.13406 0.03528 0.43745 0.03528z" fill="#fff" style="white-space:pre" aria-label="16"/>
		</g>
		<g transform="rotate(225 114.62 107.72)">
			<rect x="67.549" y="16.264" width="50" height="50" ry="10" fill="#005f9f" stroke-width=".15407"/>
			<path d="m92.535 50.563q-7.9304 0-7.9304-5.3058v-13.293h4.4027v13.293q0 1.2418 0.79022 1.7216 0.81844 0.45156 2.794 0.45156 1.9473 0 2.7093-0.45156 0.79022-0.47978 0.79022-1.7216v-13.293h4.4027v13.293q0 5.3058-7.9587 5.3058z" fill="#fff" style="white-space:pre" aria-label="U"/>
			<path d="m107.74 24.984q-0.60678 0-1.3053-0.07056v-0.73378q0.90311 0.09878 1.2912 0.09878 0.35983 0 0.52211-0.04939t0.21167-0.18344q0.0564-0.13406 0.0564-0.42333v-0.43039h-0.762q-0.381 0-0.55033-0.0071-0.16933-0.01411-0.381-0.07056-0.21872-0.05644-0.33161-0.16228-0.11289-0.10583-0.19756-0.31044-0.0776-0.21167-0.0776-0.49389v-0.62089q0-0.32456 0.0988-0.56444 0.0988-0.24694 0.254-0.38806 0.14111-0.11994 0.36689-0.19756 0.23283-0.07761 0.45861-0.09878 0.26811-0.01411 0.48683-0.01411 0.33161 0 0.52211 0.02117 0.19756 0.01411 0.41628 0.08467 0.23284 0.07761 0.37395 0.21167 0.14816 0.127 0.24694 0.36689 0.0988 0.254 0.0988 0.57856v2.1308q0 0.71261-0.43039 1.0231-0.42333 0.30339-1.3688 0.30339zm0.77611-2.4765v-1.0724q0-0.23989-0.0423-0.33161-0.0353-0.09172-0.16228-0.11994-0.11994-0.02822-0.4445-0.02822-0.29633 0-0.42333 0.03528-0.11995 0.02822-0.16228 0.127-0.0423 0.09172-0.0423 0.3175v0.6985q0 0.16933 0.0423 0.24694 0.0423 0.07056 0.16933 0.09878 0.13406 0.02822 0.42334 0.02822zm1.8133 1.3617q0-0.381 0.21167-0.66322 0.21166-0.28222 0.55033-0.43039 0.26811-0.11994 0.62795-0.23989 0.35983-0.11994 0.55739-0.254 0.19755-0.13406 0.19755-0.3175v-0.58561q0-0.21872-0.17639-0.28928-0.1905-0.07761-0.59266-0.07761-0.48684 0-1.2841 0.17639v-0.77611q0.70556-0.14817 1.4746-0.14817 0.83255 0 1.2347 0.254 0.40922 0.254 0.40922 0.84667v0.635q0 0.35983-0.21872 0.62794-0.21167 0.26106-0.55034 0.39511-0.3175 0.13406-0.64911 0.23989-0.35983 0.127-0.5715 0.28222-0.20461 0.15522-0.20461 0.36689v0.23283h2.2013v0.76906h-3.2173z" fill="#fff" style="white-space:pre" aria-label="92"/>
		</g>
		<g transform="rotate(135,96.521,118.5)">
			<rect x="67.549" y="16.264" width="50" height="50" ry="10" fill="#7f00fd" stroke-width=".15407"/>
			<path d="m82.587 35.958h-5.6444v-3.1327h15.663v3.1327h-5.6162v15.184h-4.4027zm12.39-4.572h4.1204v7.7611q0.39511-1.9473 4.318-1.9473 2.6247 0 3.6689 0.95956 1.0724 0.93133 1.0724 2.9633v10.019h-4.1204v-9.5391q0-0.79022-0.16934-1.1571-0.14111-0.39511-0.59266-0.53622-0.45156-0.16933-1.4393-0.16933-1.2136 0-1.778 0.14111-0.56445 0.14111-0.762 0.53622-0.19756 0.36689-0.19756 1.1853v9.5391h-4.1204z" fill="#fff" style="white-space:pre" aria-label="Th"/>
			<path d="m107.64 24.984q-0.60678 0-1.3053-0.07056v-0.73378q0.90311 0.09878 1.2912 0.09878 0.35984 0 0.52212-0.04939 0.16227-0.04939 0.21166-0.18344 0.0565-0.13406 0.0565-0.42333v-0.43039h-0.762q-0.381 0-0.55034-0.0071-0.16933-0.01411-0.381-0.07056-0.21872-0.05644-0.33161-0.16228-0.11289-0.10583-0.19755-0.31044-0.0776-0.21167-0.0776-0.49389v-0.62089q0-0.32456 0.0988-0.56444 0.0988-0.24694 0.254-0.38806 0.14111-0.11994 0.36689-0.19756 0.23284-0.07761 0.45861-0.09878 0.26811-0.01411 0.48684-0.01411 0.33161 0 0.52211 0.02117 0.19755 0.01411 0.41628 0.08467 0.23283 0.07761 0.37394 0.21167 0.14817 0.127 0.24695 0.36689 0.0988 0.254 0.0988 0.57856v2.1308q0 0.71261-0.43039 1.0231-0.42333 0.30339-1.3688 0.30339zm0.77611-2.4765v-1.0724q0-0.23989-0.0423-0.33161-0.0353-0.09172-0.16227-0.11994-0.11995-0.02822-0.4445-0.02822-0.29634 0-0.42334 0.03528-0.11994 0.02822-0.16228 0.127-0.0423 0.09172-0.0423 0.3175v0.6985q0 0.16933 0.0423 0.24694 0.0423 0.07056 0.16934 0.09878 0.13405 0.02822 0.42333 0.02822zm3.4431 2.4765q-0.31044 0-0.508-0.02117t-0.43039-0.08467q-0.23989-0.07055-0.38806-0.19756-0.14816-0.13406-0.24694-0.381-0.10583-0.23989-0.10583-0.57856v-2.1943q0-0.32456 0.0988-0.5715t0.254-0.38806q0.13406-0.11994 0.36689-0.1905 0.23284-0.07761 0.46567-0.09878 0.26811-0.01411 0.49389-0.01411 0.3175 0 0.508 0.02117 0.1905 0.01411 0.42333 0.08467 0.254 0.07761 0.40217 0.20461t0.254 0.36689 0.10583 0.58561v2.1943q0 0.32456-0.10583 0.5715-0.0988 0.24694-0.254 0.381-0.14111 0.11994-0.38805 0.19756-0.23989 0.07761-0.45862 0.09172-0.19755 0.02117-0.48683 0.02117zm0.0141-0.66322q0.29633 0 0.42333-0.03528 0.12701-0.04233 0.16934-0.14817 0.0423-0.10583 0.0423-0.34572v-2.3354q0-0.23989-0.0423-0.34572t-0.16934-0.14111q-0.127-0.04233-0.42333-0.04233-0.30339 0-0.43744 0.04233-0.127 0.03528-0.16934 0.14111-0.0423 0.10583-0.0423 0.34572v2.3354q0 0.23989 0.0423 0.34572t0.16934 0.14817q0.13405 0.03528 0.43744 0.03528z" fill="#fff" style="white-space:pre" aria-label="90"/>
		</g>
		<g transform="rotate(45,52.832,144.54)">
			<rect x="67.549" y="16.264" width="50" height="50" ry="10" fill="#b90022" stroke-width=".15407"/>
			<path d="m73.398 31.355h6.2653l4.5156 13.095 4.4591-13.095h5.8984v18.316h-3.9793v-13.547h-0.08467l-4.6284 13.547h-3.5278l-4.7696-13.547h-0.11289v13.547h-4.0358zm31.468 18.598q-1.27 0-2.0884-0.08467-0.81844-0.08467-1.7498-0.33867-1.016-0.28222-1.6369-0.79022-0.62089-0.53622-1.0442-1.4958-0.42333-0.93133-0.42333-2.2578v-4.0358q0-1.3547 0.42333-2.3707t1.1007-1.5804q0.59267-0.47978 1.5522-0.79022 0.98778-0.33867 1.9191-0.42333 1.0724-0.05645 1.9473-0.05645 1.2982 0 2.0602 0.08467 0.79022 0.05644 1.7216 0.33867 1.016 0.31044 1.6369 0.84667 0.64911 0.53622 1.1007 1.524 0.42334 1.016 0.42334 2.4271v4.0358q0 1.27-0.42334 2.2296-0.39511 0.95956-1.0442 1.4958-0.56444 0.47978-1.5522 0.79022-0.95955 0.28222-1.8909 0.36689-0.84666 0.08467-2.032 0.08467zm0-2.5682q1.1571 0 1.7498-0.16933 0.59267-0.19756 0.81845-0.59267 0.25399-0.39511 0.25399-1.1571v-5.1647q0-1.1289-0.59266-1.5804-0.59267-0.45156-2.2296-0.45156-1.6369 0-2.2296 0.45156-0.59267 0.45156-0.59267 1.5804v5.1647q0 0.762 0.22578 1.1571 0.254 0.39511 0.84667 0.59267 0.59266 0.16933 1.7498 0.16933z" fill="#fff" style="white-space:pre" aria-label="Mo"/>
			<path d="m108.13 23.989h-2.1167v-0.81139l1.8838-2.8434h1.1642v2.9139h0.49389v0.74083h-0.49389v0.92428h-0.93133zm0-0.74083v-1.9403l-1.2347 1.9403zm2.2013 0.62089q0-0.381 0.21167-0.66322 0.21166-0.28222 0.55033-0.43039 0.26811-0.11994 0.62795-0.23989 0.35983-0.11994 0.55739-0.254 0.19755-0.13406 0.19755-0.3175v-0.58561q0-0.21872-0.17639-0.28928-0.1905-0.07761-0.59266-0.07761-0.48684 0-1.2841 0.17639v-0.77611q0.70556-0.14817 1.4746-0.14817 0.83255 0 1.2347 0.254 0.40922 0.254 0.40922 0.84667v0.635q0 0.35983-0.21872 0.62794-0.21167 0.26106-0.55033 0.39511-0.31751 0.13406-0.64912 0.23989-0.35983 0.127-0.5715 0.28222-0.20461 0.15522-0.20461 0.36689v0.23283h2.2013v0.76906h-3.2173z" fill="#fff" style="white-space:pre" aria-label="42"/>
		</g>
	</g>
</svg>
